<?xml version="1.0" encoding="UTF-8"?>
<svg width="24px" height="24px" viewBox="0 0 24 24" version="1.1" xmlns="http://www.w3.org/2000/svg" xmlns:xlink="http://www.w3.org/1999/xlink">
    <!-- Generator: Sketch 55.1 (78136) - https://sketchapp.com -->
    <title>logo-siem-24-color</title>
    <desc>Created with Sketch.</desc>
    <g id="logo-siem-24-color" stroke="none" stroke-width="1" fill="none" fill-rule="evenodd">
        <path d="M5.0059,6.5 L4.9999,8 L17.9999,8 L18.0059,6.5 C18.0059,2.91 15.0959,0 11.5059,0 C7.9159,0 5.0059,2.91 5.0059,6.5" id="Fill-1" fill="#FFC100"></path>
        <path d="M18,15.5229 C18,16.4439 17.375,17.2429 16.481,17.4649 C15.344,17.7479 13.624,18.0539 11.518,18.0539 C9.403,18.0539 7.669,17.7459 6.522,17.4619 C5.627,17.2409 5,16.4419 5,15.5189 L5,10.9999 L18,10.9999 L18,15.5229 Z" id="Fill-3" fill="#363636"></path>
        <path d="M18,11 L18,15.523 C18,16.444 17.375,17.243 16.481,17.465 C15.344,17.748 13.625,18.054 11.518,18.054 C9.403,18.054 7.669,17.746 6.522,17.462 C5.627,17.241 5,16.442 5,15.519 L5,11 L1,11 L1,19.932 C1,21.244 1.845,22.405 3.098,22.794 C4.896,23.353 7.786,24 11.518,24 C15.242,24 18.117,23.355 19.906,22.797 C21.157,22.408 22,21.246 22,19.937 L22,11 L18,11 Z" id="Fill-5" fill="#0077CC"></path>
    </g>
</svg>